<?xml version="1.0" encoding="UTF-8" standalone="no"?>
<!-- Created with Inkscape (http://www.inkscape.org/) -->

<svg
   width="9mm"
   height="9mm"
   viewBox="0 0 9 9"
   version="1.1"
   id="svg1"
   sodipodi:docname="leaderboard.svg"
   inkscape:version="1.3 (0e150ed6c4, 2023-07-21)"
   xmlns:inkscape="http://www.inkscape.org/namespaces/inkscape"
   xmlns:sodipodi="http://sodipodi.sourceforge.net/DTD/sodipodi-0.dtd"
   xmlns="http://www.w3.org/2000/svg"
   xmlns:svg="http://www.w3.org/2000/svg">
  <sodipodi:namedview
     id="namedview1"
     pagecolor="#ffffff"
     bordercolor="#000000"
     borderopacity="0.25"
     inkscape:showpageshadow="2"
     inkscape:pageopacity="0.0"
     inkscape:pagecheckerboard="0"
     inkscape:deskcolor="#d1d1d1"
     inkscape:document-units="mm"
     showgrid="true"
     inkscape:zoom="17.355782"
     inkscape:cx="15.355114"
     inkscape:cy="21.750677"
     inkscape:window-width="1920"
     inkscape:window-height="1057"
     inkscape:window-x="-8"
     inkscape:window-y="-8"
     inkscape:window-maximized="1"
     inkscape:current-layer="layer1">
    <inkscape:grid
       id="grid2"
       units="mm"
       originx="-165.19559"
       originy="-230.79123"
       spacingx="0.99999998"
       spacingy="1"
       empcolor="#0099e5"
       empopacity="0.30196078"
       color="#0099e5"
       opacity="0.14901961"
       empspacing="5"
       dotted="false"
       gridanglex="30"
       gridanglez="30"
       visible="true"
       snapvisiblegridlinesonly="true" />
  </sodipodi:namedview>
  <defs
     id="defs1" />
  <g
     inkscape:label="Layer 1"
     inkscape:groupmode="layer"
     id="layer1"
     transform="translate(-43.707996,-61.063514)">
    <rect
       style="fill:#413d36;fill-opacity:1;stroke:#413d36;stroke-width:0.716067;stroke-linecap:round;stroke-linejoin:round;stroke-dasharray:none;stroke-opacity:1"
       id="rect35"
       width="1.3510725"
       height="4.7438817"
       x="47.532459"
       y="64.044228" />
    <g
       id="rect36">
      <path
         style="color:#000000;fill:#413d36;stroke-linecap:round;stroke-linejoin:round;-inkscape-stroke:none"
         d="m 49.925533,66.996109 h 1.566576 v 1.917416 h -1.566576 z"
         id="path4" />
      <path
         style="color:#000000;fill:#413d36;stroke-linecap:round;stroke-linejoin:round;-inkscape-stroke:none"
         d="m 49.925781,66.751953 a 0.24512601,0.24512601 0 0 0 -0.246094,0.244141 v 1.917968 a 0.24512601,0.24512601 0 0 0 0.246094,0.244141 h 1.566406 a 0.24512601,0.24512601 0 0 0 0.244141,-0.244141 v -1.917968 a 0.24512601,0.24512601 0 0 0 -0.244141,-0.244141 z m 0.244141,0.488281 h 1.076172 v 1.427735 h -1.076172 z"
         id="path5" />
    </g>
    <g
       id="rect37">
      <path
         style="color:#000000;fill:#413d36;stroke-linecap:round;stroke-linejoin:round;-inkscape-stroke:none"
         d="m 44.983238,65.823425 h 1.460005 v 3.031857 h -1.460005 z"
         id="path2" />
      <path
         style="color:#000000;fill:#413d36;stroke-linecap:round;stroke-linejoin:round;-inkscape-stroke:none"
         d="m 44.982422,65.525391 a 0.29757274,0.29757274 0 0 0 -0.296875,0.298828 v 3.03125 a 0.29757274,0.29757274 0 0 0 0.296875,0.296875 h 1.460937 a 0.29757274,0.29757274 0 0 0 0.296875,-0.296875 v -3.03125 a 0.29757274,0.29757274 0 0 0 -0.296875,-0.298828 z m 0.298828,0.595703 h 0.865234 v 2.4375 H 45.28125 Z"
         id="path3" />
    </g>
    <path
       style="fill:#413d36;fill-opacity:1;stroke:#413d36;stroke-width:0.210896;stroke-linecap:round;stroke-linejoin:round;stroke-dasharray:none;stroke-opacity:1"
       d="m 48.197125,63.042664 h 0.915881 v -1.003177 l -0.39597,0.504828 -0.502969,-0.501466 -0.494932,0.501466 -0.404006,-0.490798 -2e-6,0.983199 c 0,0 0.588003,0.0025 0.881998,0.0059 z"
       id="path38"
       sodipodi:nodetypes="cccccccccc" />
  </g>
</svg>
