<?xml version="1.0" encoding="UTF-8" standalone="no"?>
<!-- Uploaded to: SVG Repo, www.svgrepo.com, Generator: SVG Repo Mixer Tools -->

<svg
   version="1.1"
   id="_x32_"
   width="966"
   height="800"
   viewBox="0 0 618.24 512"
   xml:space="preserve"
   sodipodi:docname="puzzle_piece.svg"
   inkscape:version="1.3 (0e150ed6c4, 2023-07-21)"
   xmlns:inkscape="http://www.inkscape.org/namespaces/inkscape"
   xmlns:sodipodi="http://sodipodi.sourceforge.net/DTD/sodipodi-0.dtd"
   xmlns="http://www.w3.org/2000/svg"
   xmlns:svg="http://www.w3.org/2000/svg"><defs
   id="defs1" /><sodipodi:namedview
   id="namedview1"
   pagecolor="#ffffff"
   bordercolor="#000000"
   borderopacity="0.25"
   inkscape:showpageshadow="2"
   inkscape:pageopacity="0.0"
   inkscape:pagecheckerboard="0"
   inkscape:deskcolor="#d1d1d1"
   inkscape:zoom="0.38051184"
   inkscape:cx="337.70303"
   inkscape:cy="697.74439"
   inkscape:window-width="1920"
   inkscape:window-height="1057"
   inkscape:window-x="-8"
   inkscape:window-y="-8"
   inkscape:window-maximized="1"
   inkscape:current-layer="g1" />&#10;<style
   type="text/css"
   id="style1">&#10;<![CDATA[
	.st0{fill:#000000;}
]]>&#10;</style>&#10;<g
   id="g1"
   transform="translate(105.84901,0.59465738)"
   style="stroke-width:0.61568;stroke-dasharray:none">&#10;	<path
   class="st0"
   d="m 432.531,229.906 c -9.906,0 -19.125,2.594 -27.313,6.375 v -51.656 c 0,-42.938 -34.922,-77.875 -77.859,-77.875 h -51.641 c 3.781,-8.156 6.375,-17.375 6.375,-27.281 C 282.094,35.656 246.438,0 202.625,0 c -43.828,0 -79.484,35.656 -79.484,79.469 0,9.906 2.594,19.125 6.359,27.281 H 77.875 C 34.938,106.75 0,141.688 0,184.625 l 0.047,23.828 H 0 l 0.078,33.781 c 0,23.031 8.578,36.828 12.641,42.063 12.219,15.797 27.094,18.172 34.891,18.172 11.953,0 23.141,-4.953 33.203,-14.703 l 0.906,-0.422 1.516,-2.141 c 1.391,-1.359 6.328,-5.484 14.016,-5.5 16.344,0 29.656,13.297 29.656,29.672 0,16.344 -13.313,29.656 -29.672,29.656 -7.672,0 -12.609,-4.125 -14,-5.5 l -1.516,-2.141 -0.906,-0.422 C 70.75,321.218 59.563,316.265 47.61,316.265 39.813,316.281 24.938,318.64 12.719,334.437 8.656,339.687 0.078,353.468 0.078,376.5 L 0,410.281 H 0.047 L 0,434.063 C 0,477.063 34.938,512 77.875,512 h 54.563 v -0.063 l 3.047,-0.016 c 23.016,0 36.828,-8.563 42.063,-12.641 15.797,-12.219 18.172,-27.094 18.172,-34.891 0,-11.953 -4.953,-23.141 -14.688,-33.203 l -0.438,-0.906 -2.125,-1.516 c -1.375,-1.391 -5.516,-6.328 -5.516,-14.016 0,-16.344 13.313,-29.656 29.672,-29.656 16.344,0 29.656,13.313 29.656,29.656 0,7.688 -4.141,12.625 -5.5,14.016 l -2.125,1.516 -0.438,0.906 c -9.75,10.063 -14.703,21.25 -14.703,33.203 0,7.797 2.359,22.672 18.172,34.891 5.25,4.078 19.031,12.641 42.063,12.641 l 17,0.047 V 512 h 40.609 c 42.938,0 77.859,-34.938 77.859,-77.875 v -51.641 c 8.188,3.766 17.406,6.375 27.313,6.375 43.813,0 79.469,-35.656 79.469,-79.484 0,-43.812 -35.656,-79.469 -79.469,-79.469 z m 0,126.469 c -19.031,0 -37.469,-22.063 -37.469,-22.063 -3.344,-3.203 -6.391,-4.813 -9.25,-4.813 -2.844,0 -5.469,1.609 -7.938,4.813 0,0 -5.125,5.891 -5.125,19.313 v 80.5 c 0,25.063 -20.313,45.391 -45.391,45.391 h -23.813 l -33.797,-0.078 c -15.438,0 -22.188,-5.875 -22.188,-5.875 -3.703,-2.859 -5.563,-5.875 -5.563,-9.172 0,-3.266 1.859,-6.797 5.563,-10.594 0,0 17.219,-13.891 17.219,-39.047 0,-34.313 -27.844,-62.156 -62.156,-62.156 -34.344,0 -62.156,27.844 -62.156,62.156 0,25.156 17.219,39.047 17.219,39.047 3.688,3.797 5.531,7.328 5.531,10.594 0,3.297 -1.844,6.313 -5.531,9.172 0,0 -6.766,5.875 -22.203,5.875 l -33.797,0.078 H 77.875 C 52.812,479.516 32.5,459.188 32.5,434.125 l 0.094,-48.203 h -0.047 l 0.016,-9.422 c 0,-15.422 5.875,-22.203 5.875,-22.203 2.859,-3.703 5.875,-5.531 9.156,-5.531 3.281,0 6.813,1.828 10.609,5.531 0,0 13.891,17.234 39.047,17.234 34.313,-0.016 62.156,-27.844 62.156,-62.156 -0.016,-34.344 -27.844,-62.156 -62.156,-62.156 -25.156,0 -39.047,17.219 -39.047,17.219 -3.797,3.688 -7.328,5.531 -10.609,5.531 -3.281,0 -6.297,-1.828 -9.156,-5.531 0,0 -5.875,-6.781 -5.875,-22.203 v -1.156 h 0.031 L 32.5,184.625 c 0,-25.063 20.313,-45.375 45.375,-45.375 h 80.5 c 13.422,0 19.313,-5.125 19.313,-5.125 6.422,-4.938 6.422,-10.531 0,-17.188 0,0 -22.063,-18.438 -22.063,-37.469 0,-25.953 21.047,-46.984 47,-46.984 25.938,0 46.984,21.031 46.984,46.984 0,19.031 -22.047,37.469 -22.047,37.469 -6.438,6.656 -6.438,12.25 0,17.188 0,0 5.875,5.125 19.281,5.125 h 80.516 c 25.078,0 45.391,20.313 45.391,45.375 v 80.516 c 0,13.422 5.125,19.297 5.125,19.297 2.469,3.219 5.094,4.813 7.938,4.813 2.859,0 5.906,-1.594 9.25,-4.813 0,0 18.438,-22.047 37.469,-22.047 25.938,0 46.969,21.047 46.969,46.984 -10e-4,25.969 -21.032,47 -46.97,47 z"
   id="path1"
   style="stroke-width:0.93568;stroke-dasharray:none;fill:#000000;fill-opacity:1" />&#10;</g>&#10;</svg>
