<?xml version="1.0" encoding="UTF-8" standalone="no"?>
<!-- Created with Inkscape (http://www.inkscape.org/) -->

<svg
   width="9mm"
   height="9mm"
   viewBox="0 0 9.0000001 8.9999999"
   version="1.1"
   id="svg1"
   sodipodi:docname="question.svg"
   inkscape:version="1.3 (0e150ed6c4, 2023-07-21)"
   xmlns:inkscape="http://www.inkscape.org/namespaces/inkscape"
   xmlns:sodipodi="http://sodipodi.sourceforge.net/DTD/sodipodi-0.dtd"
   xmlns="http://www.w3.org/2000/svg"
   xmlns:svg="http://www.w3.org/2000/svg"
   xmlns:rdf="http://www.w3.org/1999/02/22-rdf-syntax-ns#"
   xmlns:cc="http://creativecommons.org/ns#">
  <sodipodi:namedview
     id="namedview1"
     pagecolor="#ffffff"
     bordercolor="#000000"
     borderopacity="0.25"
     inkscape:showpageshadow="2"
     inkscape:pageopacity="0.0"
     inkscape:pagecheckerboard="0"
     inkscape:deskcolor="#d1d1d1"
     inkscape:document-units="mm"
     showgrid="true"
     inkscape:zoom="17.355781"
     inkscape:cx="20.137382"
     inkscape:cy="18.581705"
     inkscape:window-width="1920"
     inkscape:window-height="1057"
     inkscape:window-x="-8"
     inkscape:window-y="-8"
     inkscape:window-maximized="1"
     inkscape:current-layer="layer1">
    <inkscape:grid
       id="grid2"
       units="mm"
       originx="-184.54456"
       originy="-236.61273"
       spacingx="0.99999998"
       spacingy="1"
       empcolor="#0099e5"
       empopacity="0.30196078"
       color="#0099e5"
       opacity="0.14901961"
       empspacing="5"
       dotted="false"
       gridanglex="30"
       gridanglez="30"
       visible="true"
       snapvisiblegridlinesonly="true" />
  </sodipodi:namedview>
  <defs
     id="defs1" />
  <g
     inkscape:label="Layer 1"
     inkscape:groupmode="layer"
     id="layer1"
     transform="translate(-48.827412,-62.603785)">
    <path
       d="m 51.548991,65.934315 c -0.282265,-0.0078 0.121958,0 -0.464278,-0.01065 0.0077,-0.797681 0.406592,-1.480332 0.715881,-1.744982 0.381723,-0.326629 0.890687,-0.489942 1.526892,-0.489942 0.699827,0 1.240602,0.163313 1.622325,0.489942 0.413533,0.353849 0.6203,0.802964 0.6203,1.347345 0,0.462724 -0.190862,0.857401 -0.572586,1.184029 l -0.906591,0.775743 c -0.286293,0.244971 -0.42944,0.61243 -0.42944,1.102373 h -0.858877 c 0,-0.598819 0.111336,-1.047934 0.334008,-1.347344 0.159051,-0.217753 0.461249,-0.517163 0.906593,-0.89823 0.254482,-0.217752 0.381723,-0.476334 0.381723,-0.775743 0,-0.381067 -0.111335,-0.666867 -0.334007,-0.857401 -0.190862,-0.163314 -0.46125,-0.244972 -0.811163,-0.244972 -0.286292,0 -0.52487,0.08166 -0.715731,0.244972 -0.318103,0.272192 -0.477154,0.680478 -0.477154,1.224859 h -0.537895 c 0,0 0.262287,-2e-6 0,-2e-6 z"
       id="text38"
       style="font-size:11.2993px;font-family:'MS PGothic';-inkscape-font-specification:'MS PGothic';fill:#413d36;fill-opacity:1;stroke:#413d36;stroke-width:0.5;stroke-linecap:round;stroke-linejoin:round;stroke-dasharray:none;stroke-opacity:1"
       aria-label="?"
       sodipodi:nodetypes="ccsssssscccsssssccc" />
    <circle
       style="fill:#413d36;fill-opacity:1;stroke:#413d36;stroke-width:0.484154;stroke-linecap:round;stroke-linejoin:round;stroke-dasharray:none;stroke-opacity:1"
       id="path38"
       cx="53.273514"
       cy="70.088928"
       r="0.4958061" />
  </g>
  <metadata
     id="metadata1">
    <rdf:RDF>
      <cc:Work
         rdf:about="" />
    </rdf:RDF>
  </metadata>
</svg>
