<?xml version="1.0" encoding="UTF-8" standalone="no"?>
<!-- Uploaded to: SVG Repo, www.svgrepo.com, Generator: SVG Repo Mixer Tools -->

<svg
   width="1268.792"
   height="1213.9866"
   viewBox="-12.95 0 161.52198 154.54504"
   version="1.1"
   id="svg1"
   sodipodi:docname="strategy.svg"
   inkscape:version="1.3 (0e150ed6c4, 2023-07-21)"
   xmlns:inkscape="http://www.inkscape.org/namespaces/inkscape"
   xmlns:sodipodi="http://sodipodi.sourceforge.net/DTD/sodipodi-0.dtd"
   xmlns="http://www.w3.org/2000/svg"
   xmlns:svg="http://www.w3.org/2000/svg">
  <defs
     id="defs1" />
  <sodipodi:namedview
     id="namedview1"
     pagecolor="#ffffff"
     bordercolor="#000000"
     borderopacity="0.25"
     inkscape:showpageshadow="2"
     inkscape:pageopacity="0.0"
     inkscape:pagecheckerboard="0"
     inkscape:deskcolor="#d1d1d1"
     inkscape:zoom="0.35355339"
     inkscape:cx="615.1829"
     inkscape:cy="592.55548"
     inkscape:window-width="1366"
     inkscape:window-height="745"
     inkscape:window-x="-8"
     inkscape:window-y="-8"
     inkscape:window-maximized="1"
     inkscape:current-layer="svg1" />
  <path
     id="Path_32"
     style="fill:#000000;fill-opacity:1"
     d="m 36.302188,52.704033 a 2,2 0 0 0 -1.96003,2.399874 l 5.419112,26.847914 a 2,2 0 0 0 1.960777,1.600248 h 2.198227 a 6.9,6.9 0 0 0 -0.535073,2.647769 6.261,6.261 0 0 0 5.999935,6.474092 h 1.449075 c 0.089,1.365999 0.155902,2.949932 0.154902,4.720927 0.018,7.632003 -1.268046,18.280103 -6.71204,26.130093 h -1.431919 a 7.176,7.176 0 0 0 -7.16208,7.16407 v 2.72187 a 7.173,7.173 0 0 0 -6.199842,7.08798 v 12.04612 a 2,2 0 0 0 1.999813,2.00006 h 71.937065 a 2,2 0 0 0 2.00006,-2.00006 v -12.04612 a 7.174,7.174 0 0 0 -6.193133,-7.08798 v -2.72187 a 7.176,7.176 0 0 0 -7.160832,-7.16407 h -1.435151 c -5.442994,-7.84799 -6.730786,-18.49312 -6.712786,-26.125113 0,-1.768002 0.06491,-3.363908 0.153908,-4.725907 h 1.44808 a 6.264,6.264 0 0 0 5.999936,-6.474092 6.918,6.918 0 0 0 -0.536069,-2.647769 h 2.194001 a 2,2 0 0 0 1.96003,-1.600248 L 100.56025,55.103907 A 2,2 0 0 0 98.600217,52.704033 H 84.14826 a 2,2 0 0 0 -1.956052,1.579859 L 79.776172,65.524913 H 76.33723 V 54.703845 A 2,2 0 0 0 74.337169,52.704033 H 60.137081 a 2,2 0 0 0 -1.999812,1.999812 V 65.524913 H 55.125242 L 52.711195,54.283892 a 2,2 0 0 0 -1.954063,-1.579859 z m 2.443885,3.999874 h 10.40012 l 2.414047,11.24102 a 2,2 0 0 0 1.956798,1.580109 h 6.626011 A 2,2 0 0 0 62.14311,67.524974 V 56.703907 h 10.199965 v 10.821067 a 2,2 0 0 0 2.000061,2.000062 h 7.05591 a 2,2 0 0 0 1.953068,-1.580109 l 2.416037,-11.24102 H 96.168267 L 91.55525,79.551947 H 43.357104 Z m 10.636079,27.018978 h 36.138104 a 1.788,1.788 0 0 1 1.338927,0.643978 2.865,2.865 0 0 1 0,3.662966 1.787,1.787 0 0 1 -1.338927,0.644227 h -7.80009 a 2,2 0 0 0 0,3.999874 h 2.346915 c -0.085,1.380999 -0.144957,2.974905 -0.144957,4.725907 0.016,7.367993 1.034021,17.542123 5.985016,26.125113 H 62.611051 a 2,2 0 1 0 0,3.99988 h 29.455154 a 3.193,3.193 0 0 1 3.162952,3.1632 v 2.64702 h -7.955988 a 2,2 0 0 0 0,3.99988 h 9.936908 0.0191 0.0199 1.01196 a 3.2,3.2 0 0 1 3.161963,3.16394 l -0.003,10.04705 H 33.481117 v -10.04705 a 3.2,3.2 0 0 1 3.164941,-3.16394 h 1.014203 0.01989 0.0189 30.20008 a 2,2 0 0 0 0,-3.99988 h -28.21991 v -2.64702 a 3.191,3.191 0 0 1 3.162951,-3.1632 h 9.247922 a 2,2 0 0 0 0,-3.99988 h -3.089851 c 4.953995,-8.58499 5.972,-18.76109 5.988,-26.130093 0,-1.748995 -0.0612,-3.340928 -0.1462,-4.720927 h 12.760212 a 2,2 0 0 0 0,-3.999874 H 49.382152 a 1.784,1.784 0 0 1 -1.338927,-0.644227 2.864,2.864 0 0 1 0,-3.662966 1.788,1.788 0 0 1 1.338927,-0.643978 z m 26.390913,49.613165 a 2,2 0 0 0 0,3.99987 h 1.765097 a 2,2 0 1 0 0,-3.99987 z" />
  <path
     style="fill:none;fill-opacity:1;fill-rule:evenodd;stroke:#000000;stroke-width:4.58294;stroke-linecap:round;stroke-linejoin:round;stroke-dasharray:none;stroke-opacity:1"
     id="path21"
     sodipodi:type="arc"
     sodipodi:cx="67.498566"
     sodipodi:cy="80.608665"
     sodipodi:rx="54.99522"
     sodipodi:ry="54.99522"
     sodipodi:start="2.1324927"
     sodipodi:end="1.0032587"
     sodipodi:open="true"
     sodipodi:arc-type="arc"
     d="M 38.206863,127.15402 A 54.99522,54.99522 0 0 1 14.635817,65.442782 54.99522,54.99522 0 0 1 67.337945,25.61368 54.99522,54.99522 0 0 1 120.27183,65.134257 54.99522,54.99522 0 0 1 97.06165,126.98213" />
  <path
     style="fill:none;fill-opacity:1;fill-rule:evenodd;stroke:#000000;stroke-width:4.58294;stroke-linecap:round;stroke-linejoin:round;stroke-dasharray:none;stroke-opacity:1"
     id="circle21"
     sodipodi:type="arc"
     sodipodi:cx="67.625862"
     sodipodi:cy="80.481384"
     sodipodi:rx="64.161079"
     sodipodi:ry="64.161095"
     sodipodi:start="4.1040814"
     sodipodi:end="4.5406186"
     sodipodi:arc-type="arc"
     d="M 30.959124,27.829739 A 64.161079,64.161095 0 0 1 56.659005,17.264503"
     sodipodi:open="true" />
  <path
     style="fill:none;fill-opacity:1;fill-rule:evenodd;stroke:#000000;stroke-width:4.20418;stroke-linecap:round;stroke-linejoin:round;stroke-dasharray:none;stroke-opacity:1"
     d="M 56.481045,17.508581 61.633661,2.1020899 H 73.320688 L 78.46253,17.40145"
     id="path22"
     sodipodi:nodetypes="cccc" />
  <path
     style="fill:none;fill-opacity:1;fill-rule:evenodd;stroke:#000000;stroke-width:4.58294;stroke-linecap:round;stroke-linejoin:round;stroke-dasharray:none;stroke-opacity:1"
     id="path30"
     sodipodi:type="arc"
     sodipodi:cx="67.625862"
     sodipodi:cy="80.481384"
     sodipodi:rx="64.161079"
     sodipodi:ry="64.161095"
     sodipodi:start="3.3075515"
     sodipodi:end="3.7438667"
     sodipodi:arc-type="arc"
     d="M 4.3463297,69.882095 A 64.161079,64.161095 0 0 1 14.753959,44.132978"
     sodipodi:open="true" />
  <path
     style="fill:none;fill-opacity:1;fill-rule:evenodd;stroke:#000000;stroke-width:4.58294;stroke-linecap:round;stroke-linejoin:round;stroke-dasharray:none;stroke-opacity:1"
     id="path31"
     sodipodi:type="arc"
     sodipodi:cx="67.625862"
     sodipodi:cy="80.481384"
     sodipodi:rx="64.161079"
     sodipodi:ry="64.161095"
     sodipodi:start="2.5281118"
     sodipodi:end="2.9596325"
     sodipodi:arc-type="arc"
     d="M 15.16462,117.42002 A 64.161079,64.161095 0 0 1 4.5240258,92.091829"
     sodipodi:open="true" />
  <path
     style="fill:none;fill-opacity:1;fill-rule:evenodd;stroke:#000000;stroke-width:4.58294;stroke-linecap:round;stroke-linejoin:round;stroke-dasharray:none;stroke-opacity:1"
     id="path32"
     sodipodi:type="arc"
     sodipodi:cx="67.625862"
     sodipodi:cy="80.481384"
     sodipodi:rx="64.161079"
     sodipodi:ry="64.161095"
     sodipodi:start="2.1191642"
     sodipodi:end="2.1739556"
     sodipodi:arc-type="arc"
     d="m 34.179005,135.23495 a 64.161079,64.161095 0 0 1 -2.94833,-1.91385"
     sodipodi:open="true" />
  <path
     style="fill:none;fill-opacity:1;fill-rule:evenodd;stroke:#000000;stroke-width:4.58294;stroke-linecap:round;stroke-linejoin:round;stroke-dasharray:none;stroke-opacity:1"
     id="path33"
     sodipodi:type="arc"
     sodipodi:cx="67.625862"
     sodipodi:cy="80.481384"
     sodipodi:rx="64.161079"
     sodipodi:ry="64.161095"
     sodipodi:start="0.97172111"
     sodipodi:end="1.0282433"
     sodipodi:arc-type="arc"
     d="m 103.80495,133.4693 a 64.161079,64.161095 0 0 1 -3.05118,1.95921"
     sodipodi:open="true" />
  <path
     style="fill:none;fill-opacity:1;fill-rule:evenodd;stroke:#000000;stroke-width:4.58294;stroke-linecap:round;stroke-linejoin:round;stroke-dasharray:none;stroke-opacity:1"
     id="path34"
     sodipodi:type="arc"
     sodipodi:cx="67.625862"
     sodipodi:cy="80.481384"
     sodipodi:rx="64.161079"
     sodipodi:ry="64.161095"
     sodipodi:start="0.18787732"
     sodipodi:end="0.61935825"
     sodipodi:arc-type="arc"
     d="M 130.65789,92.465008 A 64.161079,64.161095 0 0 1 119.8691,117.72772"
     sodipodi:open="true" />
  <path
     style="fill:none;fill-opacity:1;fill-rule:evenodd;stroke:#000000;stroke-width:4.58294;stroke-linecap:round;stroke-linejoin:round;stroke-dasharray:none;stroke-opacity:1"
     id="path35"
     sodipodi:type="arc"
     sodipodi:cx="67.625862"
     sodipodi:cy="80.481384"
     sodipodi:rx="64.161079"
     sodipodi:ry="64.161095"
     sodipodi:start="5.6899108"
     sodipodi:end="6.1145381"
     sodipodi:arc-type="arc"
     d="m 120.82274,44.610266 a 64.161079,64.161095 0 0 1 10.05393,25.101749"
     sodipodi:open="true" />
  <path
     style="fill:none;fill-opacity:1;fill-rule:evenodd;stroke:#000000;stroke-width:4.58294;stroke-linecap:round;stroke-linejoin:round;stroke-dasharray:none;stroke-opacity:1"
     id="path36"
     sodipodi:type="arc"
     sodipodi:cx="67.625862"
     sodipodi:cy="80.481384"
     sodipodi:rx="64.161079"
     sodipodi:ry="64.161095"
     sodipodi:start="4.8792676"
     sodipodi:end="5.336469"
     sodipodi:arc-type="arc"
     d="M 78.283348,17.211613 A 64.161079,64.161095 0 0 1 105.11845,28.414588"
     sodipodi:open="true" />
  <path
     style="fill:none;fill-opacity:1;fill-rule:evenodd;stroke:#000000;stroke-width:4.20418;stroke-linecap:round;stroke-linejoin:round;stroke-dasharray:none;stroke-opacity:1"
     d="M 14.917498,43.547935 7.6669133,29.010451 15.930889,20.746475 30.385002,27.928925"
     id="path37"
     sodipodi:nodetypes="cccc" />
  <path
     style="fill:none;fill-opacity:1;fill-rule:evenodd;stroke:#000000;stroke-width:4.20418;stroke-linecap:round;stroke-linejoin:round;stroke-dasharray:none;stroke-opacity:1"
     d="M 4.5585807,92.083316 -10.84791,86.9307 V 75.243673 L 4.4514497,70.101831"
     id="path38"
     sodipodi:nodetypes="cccc" />
  <path
     style="fill:none;fill-opacity:1;fill-rule:evenodd;stroke:#000000;stroke-width:4.20418;stroke-linecap:round;stroke-linejoin:round;stroke-dasharray:none;stroke-opacity:1"
     d="m 30.777971,133.2868 -14.537486,7.25058 -8.2639707,-8.26397 7.1824437,-14.45412"
     id="path39"
     sodipodi:nodetypes="cccc" />
  <path
     style="fill:none;fill-opacity:1;fill-rule:evenodd;stroke:#000000;stroke-width:4.20418;stroke-linecap:round;stroke-linejoin:round;stroke-dasharray:none;stroke-opacity:1"
     d="m 119.98434,117.95764 7.25058,14.53748 -8.26397,8.26398 -14.45411,-7.18245"
     id="path40"
     sodipodi:nodetypes="cccc" />
  <path
     style="fill:none;fill-opacity:1;fill-rule:evenodd;stroke:#000000;stroke-width:4.20418;stroke-linecap:round;stroke-linejoin:round;stroke-dasharray:none;stroke-opacity:1"
     d="m 131.0634,70.142394 15.40648,5.152616 1e-5,11.687026 -15.29936,5.14184"
     id="path41"
     sodipodi:nodetypes="cccc" />
  <path
     style="fill:none;fill-opacity:1;fill-rule:evenodd;stroke:#000000;stroke-width:4.20418;stroke-linecap:round;stroke-linejoin:round;stroke-dasharray:none;stroke-opacity:1"
     d="m 105.38412,28.218776 14.53748,-7.250576 8.26398,8.263968 -7.18245,14.454111"
     id="path42"
     sodipodi:nodetypes="cccc" />
</svg>
